<?xml version="1.0" encoding="UTF-8"?> <!-- Generator: Adobe Illustrator 25.3.1, SVG Export Plug-In . SVG Version: 6.00 Build 0) --> <svg xmlns="http://www.w3.org/2000/svg" xmlns:xlink="http://www.w3.org/1999/xlink" version="1.1" id="Layer_1" x="0px" y="0px" width="100px" height="100px" viewBox="0 0 100 100" style="enable-background:new 0 0 100 100;" xml:space="preserve"> <style type="text/css"> .st0{fill:none;stroke:#000000;stroke-width:4.1101;stroke-miterlimit:10;} </style> <g> <path class="st0" d="M43.8,12v20.6c0,1.6-0.8,3-2.1,4.1l-10.3,8.2"></path> <path class="st0" d="M43.8,30.5c-1.7-1.5-4.9-3.6-6.2-4.1c-2.1-0.9-7.7-1.6-14.1,3c-7.5,5.3-13,11.5-15.1,19.3 c-2,7.8-7.4,31-5.3,37.5c2.2,6.4,32.5-5.4,34.4-10.4c2.5-6.5,4.3-11.6,4.1-20.6V49"></path> <path class="st0" d="M56.2,12v20.6c0,1.6,0.8,3,2.1,4.1l10.3,8.2"></path> <path class="st0" d="M56.2,30.5c1.7-1.5,4.9-3.6,6.2-4.1c2.1-0.9,7.7-1.6,14.1,3c7.5,5.3,13,11.5,15.1,19.3c2,7.8,7.4,31,5.3,37.5 c-2.2,6.4-32.5-5.4-34.4-10.4c-2.5-6.5-4.1-11.6-4.1-20.6V49"></path> <path class="st0" d="M66.4,55.2l-12.7-9.7c-0.5-0.4-3.1-0.9-3.8-0.9s-3.2,0.5-3.8,0.9l-12.7,9.7"></path> </g> </svg> 