<?xml version="1.0" encoding="UTF-8"?> <!-- Generator: Adobe Illustrator 25.3.1, SVG Export Plug-In . SVG Version: 6.00 Build 0) --> <svg xmlns="http://www.w3.org/2000/svg" xmlns:xlink="http://www.w3.org/1999/xlink" version="1.1" id="Layer_1" x="0px" y="0px" width="100px" height="100px" viewBox="0 0 100 100" style="enable-background:new 0 0 100 100;" xml:space="preserve"> <style type="text/css"> .st0{fill:#0B295F;} </style> <g> <g> <g> <g id="star_17_"> </g> <g id="star_18_"> </g> <g id="star_19_"> </g> <g id="star_20_"> </g> <g id="star_21_"> </g> </g> </g> <g> <g> <g id="s6_2_"> </g> <g id="s5_3_"> </g> <g id="s6_3_"> </g> <g id="s5_4_"> </g> </g> <g id="s6_4_"> </g> </g> <g> <g> <g id="star_31_"> </g> <g id="star_30_"> </g> <g id="star_29_"> </g> <g id="star_28_"> </g> <g id="star_27_"> </g> </g> </g> <g> <g> <g id="s6_7_"> </g> <g id="s5_7_"> </g> <g id="s6_6_"> </g> <g id="s5_6_"> </g> </g> <g id="s6_5_"> </g> </g> <g> <g> <g id="star_47_"> </g> <g id="star_46_"> </g> <g id="star_45_"> </g> <g id="star_44_"> </g> <g id="star_43_"> </g> </g> </g> <g> <g> <g id="s6_11_"> </g> <g id="s5_11_"> </g> <g id="s6_10_"> </g> <g id="s5_10_"> </g> </g> <g id="s6_9_"> </g> </g> <g> <g> <g id="star_63_"> </g> <g id="star_62_"> </g> <g id="star_61_"> </g> <g id="star_60_"> </g> <g id="star_59_"> </g> </g> </g> <g> <g> <g id="s6_15_"> </g> <g id="s5_15_"> </g> <g id="s6_14_"> </g> <g id="s5_14_"> </g> </g> <g id="s6_13_"> </g> </g> <g> <g> <path class="st0" d="M97.4,45.6L97.4,45.6c-2.2-1.6-2.6-4.6-1.1-6.8l0,0c1.9-2.7,0.7-6.5-2.4-7.5h0c-2.6-0.8-3.9-3.6-3.1-6.1l0,0 c1-3.2-1.3-6.4-4.6-6.4h0c-2.7,0-4.9-2.2-4.9-4.9v0c0-3.3-3.2-5.7-6.4-4.6l0,0C72.3,10,69.5,8.6,68.7,6l0,0 c-1-3.1-4.8-4.4-7.5-2.4l0,0c-2.2,1.6-5.2,1.1-6.8-1.1l0,0c-2-2.7-5.9-2.7-7.9,0l0,0c-1.6,2.2-4.6,2.6-6.8,1.1l0,0 c-2.7-1.9-6.5-0.7-7.5,2.4l0,0C31.3,8.6,28.5,10,26,9.2l0,0c-3.2-1-6.4,1.3-6.4,4.6v0c0,2.7-2.2,4.9-4.9,4.9h0 c-3.3,0-5.7,3.2-4.6,6.4v0c0.8,2.6-0.6,5.3-3.1,6.1h0c-3.1,1-4.4,4.8-2.4,7.5l0,0C6,40.9,5.5,44,3.4,45.6l0,0 c-2.7,2-2.7,5.9,0,7.9l0,0c2.2,1.6,2.6,4.6,1.1,6.8l0,0c-1.9,2.7-0.7,6.5,2.4,7.5h0c2.6,0.8,3.9,3.6,3.1,6.1v0 c-1,3.2,1.3,6.4,4.6,6.4h0c2.7,0,4.9,2.2,4.9,4.9v0c0,3.3,3.2,5.7,6.4,4.6l0,0c2.6-0.8,5.3,0.6,6.1,3.1l0,0 c1,3.1,4.8,4.4,7.5,2.4l0,0c2.2-1.6,5.2-1.1,6.8,1.1l0,0c2,2.7,5.9,2.7,7.9,0l0,0c1.6-2.2,4.6-2.6,6.8-1.1l0,0 c2.7,1.9,6.5,0.7,7.5-2.4l0,0c0.8-2.6,3.6-3.9,6.1-3.1l0,0c3.2,1,6.4-1.3,6.4-4.6v0c0-2.7,2.2-4.9,4.9-4.9h0 c3.3,0,5.7-3.2,4.6-6.4l0,0c-0.8-2.6,0.6-5.3,3.1-6.1h0c3.1-1,4.4-4.8,2.4-7.5l0,0c-1.6-2.2-1.1-5.2,1.1-6.8l0,0 C100.1,51.5,100.1,47.5,97.4,45.6z M91.1,49.5c0,22.5-18.2,40.7-40.7,40.7S9.7,72,9.7,49.5S27.9,8.8,50.4,8.8S91.1,27,91.1,49.5z "></path> <g> <path class="st0" d="M50.4,88.9c-5.3,0-10.5-1-15.3-3.1c-2.3-1-4.6-2.2-6.7-3.6c-2.1-1.4-4-3-5.8-4.8c-1.8-1.8-3.4-3.7-4.8-5.8 c-1.4-2.1-2.6-4.4-3.6-6.7C12,60,11,54.8,11,49.5c0-5.3,1-10.5,3.1-15.3c1-2.3,2.2-4.6,3.6-6.7c1.4-2.1,3-4,4.8-5.8 c1.8-1.8,3.7-3.4,5.8-4.8c2.1-1.4,4.4-2.6,6.7-3.6c4.9-2.1,10-3.1,15.3-3.1c5.3,0,10.5,1,15.3,3.1c2.3,1,4.6,2.2,6.7,3.6 c2.1,1.4,4,3,5.8,4.8c1.8,1.8,3.4,3.7,4.8,5.8c1.4,2.1,2.6,4.4,3.6,6.7c2.1,4.9,3.1,10,3.1,15.3c0,5.3-1,10.5-3.1,15.3 c-1,2.3-2.2,4.6-3.6,6.7c-1.4,2.1-3,4-4.8,5.8c-1.8,1.8-3.7,3.4-5.8,4.8c-2.1,1.4-4.4,2.6-6.7,3.6 C60.9,87.9,55.7,88.9,50.4,88.9z M50.4,11.8c-20.8,0-37.7,16.9-37.7,37.7s16.9,37.7,37.7,37.7s37.7-16.9,37.7-37.7 S71.2,11.8,50.4,11.8z M50.4,80.4c-4.2,0-8.2-0.8-12-2.4c-1.8-0.8-3.6-1.7-5.3-2.9c-1.6-1.1-3.2-2.4-4.6-3.8 c-1.4-1.4-2.7-2.9-3.8-4.6c-1.1-1.7-2.1-3.4-2.9-5.3c-1.6-3.8-2.4-7.9-2.4-12s0.8-8.2,2.4-12c0.8-1.8,1.7-3.6,2.9-5.3 c1.1-1.6,2.4-3.2,3.8-4.6c1.4-1.4,2.9-2.7,4.6-3.8c1.7-1.1,3.4-2.1,5.3-2.9c3.8-1.6,7.9-2.4,12-2.4s8.2,0.8,12,2.4 c1.8,0.8,3.6,1.7,5.3,2.9c1.6,1.1,3.2,2.4,4.6,3.8c1.4,1.4,2.7,2.9,3.8,4.6c1.1,1.7,2.1,3.4,2.9,5.3c1.6,3.8,2.4,7.9,2.4,12 s-0.8,8.2-2.4,12c-0.8,1.8-1.7,3.6-2.9,5.3c-1.1,1.6-2.4,3.2-3.8,4.6c-1.4,1.4-2.9,2.7-4.6,3.8c-1.7,1.1-3.4,2.1-5.3,2.9 C58.6,79.6,54.6,80.4,50.4,80.4z M50.4,20.3c-16.1,0-29.2,13.1-29.2,29.2s13.1,29.2,29.2,29.2s29.2-13.1,29.2-29.2 S66.5,20.3,50.4,20.3z"></path> </g> <g> <g> <polygon class="st0" points="50.4,12.1 50.4,12.1 50.4,12.1 49.6,14.4 47.2,14.4 49.2,15.9 48.4,18.3 50.4,16.8 50.4,16.8 50.4,16.8 52.4,18.3 51.6,15.9 53.6,14.4 51.2,14.4 "></polygon> </g> </g> <g> <g> <polygon class="st0" points="50.4,87 50.4,87 50.4,87 49.6,84.6 47.2,84.6 49.2,83.1 48.4,80.8 50.4,82.2 50.4,82.2 50.4,82.2 52.4,80.8 51.6,83.1 53.6,84.6 51.2,84.6 "></polygon> </g> </g> </g> <g> <path class="st0" d="M41.9,80.6l-1.6,4.1l-2.2-0.8l0.3-2.8l-1.7,2.3l-2.1-0.8l1.6-4.1l1.3,0.5l-1.2,3.2l2.1-2.9l1.1,0.4l-0.4,3.6 l1.2-3.2L41.9,80.6z"></path> <path class="st0" d="M36,78.3l-3.8,2.8l-1.7-1l0.9-4.6l1.4,0.9l-0.1,0.4l1.5,0.9l0.4-0.3L36,78.3z M33.4,78.5l-0.8-0.5l-0.4,1.6 L33.4,78.5z"></path> <path class="st0" d="M28.3,78.6l-1.9-1.7c-0.6-0.6-1-1.1-1.1-1.7c-0.1-0.6,0.1-1.1,0.6-1.7c0.5-0.5,1-0.8,1.6-0.8 c0.6,0,1.2,0.3,1.8,0.8l1.9,1.7L28.3,78.6z M27.9,76.8l1.4-1.6l-0.6-0.5c-0.3-0.3-0.6-0.4-0.8-0.4c-0.2,0-0.5,0.2-0.7,0.4 c-0.3,0.3-0.4,0.6-0.3,0.8c0,0.2,0.2,0.5,0.5,0.8L27.9,76.8z"></path> <path class="st0" d="M27,71.4l-3.4,2.8l-2.7-3.3l0.8-0.7l1.7,2.1l0.4-0.3l-1.4-1.7l0.8-0.7l1.4,1.7l0.4-0.4l-1.8-2.2l0.9-0.7 L27,71.4z"></path> <path class="st0" d="M21.4,62.9l-4.1,1.7l-0.6-1.4l4.1-1.7L21.4,62.9z"></path> <path class="st0" d="M20.4,60.7l-4.3,1.2l-0.5-1.8l2-2.2l-2.5,0.7l-0.4-1.5L19,56l0.5,1.7l-2,2.3l2.5-0.7L20.4,60.7z"></path> <path class="st0" d="M18.4,50.4l-4.3-2l0.1-2l4.5-1.4l-0.1,1.7l-0.4,0.1L18,48.6l0.4,0.2L18.4,50.4z M17,48.2l0.1-1l-1.6,0.4 L17,48.2z"></path> <path class="st0" d="M14.7,42.4l2.1,0.5c0.4,0.1,0.7,0.1,0.9,0c0.2-0.1,0.3-0.3,0.4-0.6c0.1-0.3,0-0.5-0.1-0.7 c-0.1-0.2-0.4-0.3-0.9-0.4l-2.1-0.5l0.3-1.5l2.3,0.5c0.8,0.2,1.3,0.5,1.5,0.9c0.3,0.4,0.3,1.1,0.1,1.9c-0.2,0.8-0.5,1.3-0.9,1.6 c-0.4,0.3-1,0.4-1.8,0.2L14.4,44L14.7,42.4z"></path> <path class="st0" d="M18.6,39.1l0.7-1.7c0.1,0,0.2,0,0.3-0.1c0.1-0.1,0.2-0.2,0.3-0.4c0.1-0.2,0.1-0.4,0.1-0.5 c0-0.1-0.1-0.2-0.2-0.2c-0.1,0-0.2,0-0.3,0c-0.1,0.1-0.2,0.2-0.3,0.3l-0.6,1c-0.2,0.4-0.5,0.7-0.8,0.8c-0.3,0.1-0.6,0.1-1,0 c-0.5-0.2-0.7-0.5-0.8-0.9c-0.1-0.4,0-1,0.4-1.8c0.3-0.8,0.7-1.3,1-1.6c0.4-0.3,0.8-0.4,1.2-0.2l-0.7,1.7c-0.1,0-0.3,0-0.4,0.1 c-0.1,0.1-0.2,0.3-0.3,0.5c-0.1,0.2-0.1,0.3-0.1,0.4c0,0.1,0.1,0.2,0.1,0.2c0.1,0,0.2,0,0.2,0c0.1-0.1,0.2-0.2,0.3-0.4l0.7-1.2 c0.2-0.4,0.5-0.6,0.8-0.8c0.3-0.1,0.6-0.1,0.9,0c0.5,0.2,0.8,0.6,0.9,1.1c0.1,0.5-0.1,1.2-0.4,2.1c-0.3,0.7-0.6,1.2-1,1.5 C19.5,39.3,19.1,39.3,18.6,39.1z"></path> <path class="st0" d="M22.7,33.6l-2.8-1.7l-0.8,1.2l-1-0.6l2.3-3.8l1,0.6l-0.8,1.2l2.8,1.7L22.7,33.6z"></path> <path class="st0" d="M23.1,25.4c0.2-0.3,0.4-0.5,0.6-0.6c0.2-0.1,0.3-0.2,0.4-0.3c0.2-0.1,0.3-0.1,0.5,0c0.2,0,0.3,0.1,0.5,0.3 c0.2,0.2,0.3,0.4,0.4,0.6c0.1,0.2,0.1,0.4,0,0.6c0.2-0.1,0.3-0.1,0.5-0.1c0.1,0,0.3,0.1,0.6,0.3c0,0,0.1,0,0.1,0.1 c0.5,0.4,0.8,0.5,0.9,0.5l0.1,0l-1.1,1.3c-0.1,0-0.3-0.1-0.5-0.3c-0.1-0.1-0.2-0.2-0.3-0.2c-0.1-0.1-0.3-0.1-0.4-0.1 c-0.1,0-0.2,0.1-0.3,0.3l-0.6,0.7l1,0.9l-1,1.2l-3.4-2.8L23.1,25.4z M23.6,27.8l0.6-0.7c0.2-0.2,0.2-0.3,0.3-0.4 c0-0.1,0-0.2-0.1-0.3c-0.1-0.1-0.2-0.1-0.3-0.1c-0.1,0-0.2,0.2-0.4,0.4L23,27.3L23.6,27.8z"></path> <path class="st0" d="M27.7,26.8l-1.6-4.5l1.5-1.3l4.1,2.3l-1.3,1.1l-0.4-0.2l-1.3,1.1l0.2,0.4L27.7,26.8z M28.3,24.3l0.8-0.6 l-1.4-0.9L28.3,24.3z"></path> <path class="st0" d="M32,23.2l-2.4-3.7l1.3-0.8l1.7,2.7l2.1-1.3l0.6,1L32,23.2z"></path> <path class="st0" d="M35.9,20.9l-1.9-4l1.4-0.7l1.9,4L35.9,20.9z"></path> <path class="st0" d="M37.5,20l0.2-4.8l1.9-0.7l3,3.6l-1.6,0.6l-0.3-0.4L39,19l0,0.5L37.5,20z M39,17.9l0.9-0.3l-1-1.3L39,17.9z"></path> </g> <g> <path class="st0" d="M59.4,18.4l1.6-4.1l2.2,0.8l-0.3,2.8l1.7-2.3l2.1,0.8L65,20.6l-1.3-0.5l1.2-3.2l-2.1,2.9l-1.1-0.4l0.4-3.6 l-1.2,3.2L59.4,18.4z"></path> <path class="st0" d="M65.2,20.7l3.8-2.8l1.7,1l-0.9,4.6l-1.4-0.9l0.1-0.4L67,21.3l-0.4,0.3L65.2,20.7z M67.9,20.6l0.8,0.5 l0.4-1.6L67.9,20.6z"></path> <path class="st0" d="M72.9,20.4l1.9,1.7c0.6,0.6,1,1.1,1.1,1.7c0.1,0.6-0.1,1.1-0.6,1.7c-0.5,0.5-1,0.8-1.6,0.8 c-0.6,0-1.2-0.3-1.8-0.8L70,23.7L72.9,20.4z M73.4,22.2L72,23.9l0.6,0.5c0.3,0.3,0.6,0.4,0.8,0.4c0.2,0,0.5-0.2,0.7-0.4 c0.3-0.3,0.4-0.6,0.3-0.8c0-0.2-0.2-0.5-0.5-0.8L73.4,22.2z"></path> <path class="st0" d="M74.3,27.6l3.4-2.8l2.7,3.3l-0.8,0.7l-1.7-2.1l-0.4,0.3l1.4,1.7L78,29.4l-1.4-1.7l-0.4,0.4l1.8,2.2L77.1,31 L74.3,27.6z"></path> <path class="st0" d="M79.9,36.1l4.1-1.7l0.6,1.4l-4.1,1.7L79.9,36.1z"></path> <path class="st0" d="M80.9,38.3l4.3-1.2l0.5,1.8l-2,2.2l2.5-0.7l0.4,1.5L82.2,43l-0.5-1.7l2-2.3l-2.5,0.7L80.9,38.3z"></path> <path class="st0" d="M82.9,48.6l4.3,2l-0.1,2L82.6,54l0.1-1.7l0.4-0.1l0.1-1.7l-0.4-0.2L82.9,48.6z M84.3,50.9l-0.1,1l1.6-0.4 L84.3,50.9z"></path> <path class="st0" d="M86.5,56.6l-2.1-0.5c-0.4-0.1-0.7-0.1-0.9,0c-0.2,0.1-0.3,0.3-0.4,0.6c-0.1,0.3,0,0.5,0.1,0.7 c0.1,0.2,0.4,0.3,0.9,0.4l2.1,0.5l-0.3,1.5l-2.3-0.5c-0.8-0.2-1.3-0.5-1.5-0.9c-0.3-0.4-0.3-1.1-0.1-1.9c0.2-0.8,0.5-1.3,0.9-1.6 c0.4-0.3,1-0.4,1.8-0.2l2.3,0.5L86.5,56.6z"></path> <path class="st0" d="M82.6,59.9l-0.7,1.7c-0.1,0-0.2,0-0.3,0.1c-0.1,0.1-0.2,0.2-0.3,0.4c-0.1,0.2-0.1,0.4-0.1,0.5 c0,0.1,0.1,0.2,0.2,0.2c0.1,0,0.2,0,0.3,0c0.1-0.1,0.2-0.2,0.3-0.3l0.6-1c0.2-0.4,0.5-0.7,0.8-0.8c0.3-0.1,0.6-0.1,1,0 c0.5,0.2,0.7,0.5,0.8,0.9c0.1,0.4,0,1-0.4,1.8c-0.3,0.8-0.7,1.3-1,1.6c-0.4,0.3-0.8,0.4-1.2,0.2l0.7-1.7c0.1,0,0.3,0,0.4-0.1 c0.1-0.1,0.2-0.3,0.3-0.5c0.1-0.2,0.1-0.3,0.1-0.4c0-0.1-0.1-0.2-0.1-0.2c-0.1,0-0.2,0-0.2,0c-0.1,0.1-0.2,0.2-0.3,0.4l-0.7,1.2 c-0.2,0.4-0.5,0.6-0.8,0.8c-0.3,0.1-0.6,0.1-0.9,0c-0.5-0.2-0.8-0.6-0.9-1.1c-0.1-0.5,0.1-1.2,0.4-2.1c0.3-0.7,0.6-1.2,1-1.5 C81.8,59.8,82.2,59.7,82.6,59.9z"></path> <path class="st0" d="M78.6,65.5l2.8,1.7l0.8-1.2l1,0.6l-2.3,3.8l-1-0.6l0.8-1.2l-2.8-1.7L78.6,65.5z"></path> <path class="st0" d="M78.2,73.6c-0.2,0.3-0.4,0.5-0.6,0.6c-0.2,0.1-0.3,0.2-0.4,0.3c-0.2,0.1-0.3,0.1-0.5,0s-0.3-0.1-0.5-0.3 c-0.2-0.2-0.3-0.4-0.4-0.6c-0.1-0.2-0.1-0.4,0-0.6c-0.2,0.1-0.3,0.1-0.5,0.1c-0.1,0-0.3-0.1-0.6-0.3c0,0-0.1,0-0.1-0.1 c-0.5-0.4-0.8-0.5-0.9-0.5l-0.1,0l1.1-1.3c0.1,0,0.3,0.1,0.5,0.3c0.1,0.1,0.2,0.2,0.3,0.2c0.1,0.1,0.3,0.1,0.4,0.1 c0.1,0,0.2-0.1,0.3-0.3l0.6-0.7l-1-0.9l1-1.2l3.4,2.8L78.2,73.6z M77.7,71.3L77.1,72c-0.2,0.2-0.2,0.3-0.3,0.4 c0,0.1,0,0.2,0.1,0.3c0.1,0.1,0.2,0.1,0.3,0.1c0.1,0,0.2-0.2,0.4-0.4l0.6-0.7L77.7,71.3z"></path> <path class="st0" d="M73.6,72.2l1.6,4.5L73.6,78l-4.1-2.3l1.3-1.1l0.4,0.2l1.3-1.1l-0.2-0.4L73.6,72.2z M72.9,74.8l-0.8,0.6 l1.4,0.9L72.9,74.8z"></path> <path class="st0" d="M69.3,75.8l2.4,3.7l-1.3,0.8l-1.7-2.7L66.5,79l-0.6-1L69.3,75.8z"></path> <path class="st0" d="M65.4,78.1l1.9,4l-1.4,0.7l-1.9-4L65.4,78.1z"></path> <path class="st0" d="M63.8,79l-0.2,4.8l-1.9,0.7l-3-3.6l1.6-0.6l0.3,0.4l1.6-0.6l0-0.5L63.8,79z M62.2,81.2l-0.9,0.3l1,1.3 L62.2,81.2z"></path> </g> </g> <g> <g> <g> <path class="st0" d="M62.7,28.4c0,0.2,0,0.3,0,0.4c0,0,0,0,0,0V29l0,0.3l0,0.3v0.1l0.1,0.4l0.1,0.3l0,0.1l0.1,0.1l0.2,0l0.2,0 l0.2-0.2l0.3,0l0.1,0l0.1,0l0,0.1v0.1l0,0.1l0,0.1l0.1,0.1l0,0.1l0.1,0l0.2,0.1l0.1,0.1l0.2,0.2l0.1,0.1l0.2,0.1l0,0.1l0,0.1 l-0.1,0.1l0,0.1l0,0l0.1,0.1l0,0.1l-0.1,0.2l0,0.1l0,0.1l0.2,0.5l0,0.1v0.7l0.1,0.1l0.2,0.2l0.1,0.2l0.2,0.1l0.1,0.1l0.2,0.6 l0,0.5L66,35.7v0.2l0.1,0.1l0.2,0.1l0,0.1v0.2l-0.1,0.3l0,0.1l0.1,0.1l0.2,0.2l0.2,0.1l0.2,0.1H67l0.1-0.1l0.1,0l0.1,0.2l0,0 l0.3,0l0.1,0.1l0,0.1l0,0.1L67.7,38l0.1,0.1l0.1,0.1l0,0.1l0.1,0.1l0.1-0.1l0.1,0.1l0.1,0l0.3,0.1l0.2,0.1l0.1,0.1l0,0.1h0 l0.2-0.1l0.1,0.1l0.1,0.2l0.1,0.2l0.1,0.2v0.1l0,0l-0.2-0.1l-0.1,0l0,0.1l0.1,0.2l0.2,0.2l0.1,0.1l0.4,0.3l0.1,0.1v0.1l0,0.1 l0,0.2l0,0.1l0.1,0.1v0.3l0,0.3l0,0.1l0.1,0.3l0,0.1l0.1,0.2l0.1,0l0.1-0.1l0.1,0.2l0,0l0-0.1L70.6,42v-0.1l0.1-0.1l0.1,0.1 l0.2,0.3l0.3,0.3h0.1l0-0.1l-0.1-0.1l0-0.1l0,0l0.2,0.1l0,0.1l0,0.1l0.1,0l0.1,0.1v0.1L71.7,43l0,0.3l0,0.3l0,0.1l-0.2,0.1 l0,0.1l0.4,0.3l0.5,0.6l0.1,0.1l0,0l0.2,0l0.2,0.1l0.1,0.2l0.1,0.3l0.3,0.3l0.1,0l0.1,0.1l0,0.1l0,0.3l0,0.1l0.2,0l0.1,0.1 l0,0.1l0,0.1L74,46.8v0.1l0,0.1L74,47.2l0.1,0l0.2,0l0.1,0.1v0.1l-0.1,0.3l0,0.5l0.1,0.5l0,0.1L74.1,49l0,0l0,0l0.1,0.1l0,0 l0,0.4l0.3,1l0,0.4l0,0.3L74.3,52l-0.1,0.4l-0.1,0.2L74,52.9l-0.6,1.2l0,0.1l0,0h0.1l0,0.1l-0.2,0.4l-0.1,0.1L73.1,55l0,0.2 l-0.3,0.5L72.6,56l0,0.1h0.2v0l-0.4,0.5l-0.2,0.1l-0.2,0.1L71.6,57l-0.2,0.2l-0.2,0.4l-0.1,0.1l-0.2,0l0,0l0,0.1l0.2,0l0,0 l-0.1,0.2l-0.5,0.9l0,0h-0.1l0,0l0.1,0.1l0,0.1l-0.1,0.4l0,0.2l0,0.1l-0.1,0l0,0l0,0.1L70,60.2l-0.2,0l-0.1,0.2l-0.4,0.9 l-0.1,0.1l-0.3,1l-0.1,0.3l0,0.5l0,0.1l0,0c0,0-0.1,0-0.1,0c0,0-0.3,0.3-0.3,0.3l-0.2,0.1h-0.5l-0.6,0l-0.5,0.1l-0.2-0.1h-0.1 L66,63.7l-0.2,0l-0.1,0.1l0,0.1h0.1l0.4-0.2l0.1,0l0,0l0,0l-0.1,0.1l-0.4,0.2l-0.4,0.4l-0.2,0.1l-0.2,0l-0.4,0l-0.1,0l0,0.1 l0.2,0.1l0,0.1l0,0.2l-0.1,0l-0.3-0.4l-0.1-0.1l-0.2,0l-0.1-0.3l-0.2-0.1l-0.1-0.1l0.1-0.4l-0.2-0.1l-0.1,0L63.3,64l-0.1,0.1 l-0.2,0.1l-0.1,0l0,0l0-0.1l0.3-0.4l0-0.1l-0.1-0.2l-0.2,0l-0.4,0.2l0,0.1l0.2,0l0,0.1l0,0.1l-0.1,0.1l-0.2,0L62.5,64l-0.1,0.2 l-0.2,0l-0.1,0L62,64.4l-0.1,0.1l-0.5,0.2l-0.3,0l-0.4-0.2l-0.4-0.2L60.1,64L60,63.9l-0.3,0l-0.3-0.1l-0.1,0l-0.1,0.1l-0.3,0 l-0.2-0.2l-0.3-0.2l-0.6-0.2l-0.1-0.1l0-0.1l-0.7-0.9V62l-0.1-0.1l0-0.1l0.1-0.1l0-0.3l0-0.1L56.3,60v-0.1l0.1,0l0.1,0.1l0,0 l0-0.3l-0.1-0.1l-0.2,0l-0.1,0l-0.1,0.1l-0.1,0l-0.1,0l0,0.1l0,0l-0.1,0l-0.2-0.2l-0.1,0l0,0.2l0,0.1l-0.3,0l-0.1,0l-0.1-0.1 l0.1-0.1l0.3-0.3l0-0.7l-0.3-0.6l-0.1-0.3l-0.1,0l0,0.2l-0.2,0.2l0,0.7l0,0.1l-0.1,0.1l-0.2,0l-0.2,0l-0.1,0.2l-0.2,0l0,0l0,0.1 l-0.1,0l-0.1,0l0,0l-0.1,0.1l-0.1,0v-0.1l0.3-0.4L54,59l0.3,0l0.1-0.2l0-0.9l0.1-0.3l0.1-0.2l0.2-0.3l0-0.3l-0.1-0.2l0-0.4 l0-0.1v-0.3l-0.1-0.2l0-0.2l0-0.3l0-0.2l-0.1,0l-0.1,0l0,0.5l0,0.3l0,0.1l0,0.1l0,0.2l-0.2,0.2l-0.1,0.1l-0.3,0.7l-0.1,0.2 l-0.1,0l-0.3,0.1l-0.1,0.1l-0.6,0.6l-0.1,0.2l0,0.3l-0.1,0l-0.1,0l-0.1,0.1l0,0.1l0.1,0l0,0l0,0.3l-0.1,0L52.3,59L52.1,59 L52,58.9l-0.1-0.2l-0.2,0l-0.2-0.1l0-0.1l0.1,0l0.1,0.1l0.1,0l0-0.1l0-0.1l-0.1-0.3l-0.2-0.3l-0.3-0.3l-0.1-0.2L51,56.7 l-0.2-0.1l-0.3-0.1l-0.1-0.1l-0.1-0.2l0-0.1l0.1-0.1l0-0.1l-0.2-0.2l-0.4,0l-0.1-0.1v-0.1l-0.1-0.1l-0.1-0.1l0-0.2l-0.1-0.1 l-0.3,0.2l-0.2,0l-0.1-0.1l-0.3-0.2l-0.1,0l-0.1,0l-0.2,0.1l-0.2,0l-1.1-0.7l-0.3,0l-0.5,0.2l-0.4,0l-0.3,0l-0.5,0.2l-0.2,0 l-0.4,0l-0.3,0.1l-0.7,0.4l-1.3,0.6l-0.3,0l-0.5,0l-0.3-0.1l-0.1,0L40.6,56l-0.1,0l-1.4,0.9L38.8,57l-0.4,0.2l-0.1,0.2l-0.1,0.2 v0.3l0,0.1l0,0.1l0,0.1l-0.2,0.2l-0.2,0.3l-0.1,0l-0.1,0l-0.1,0l-0.2,0.2l-0.1,0l-0.2-0.1l-0.2,0l-0.1,0l-0.5,0.3l-0.2,0 l-0.2-0.2h-0.3L35,58.8l-0.4,0.1l-0.2,0.1L34.1,59l-0.5,0l-0.2,0.1l-0.3,0.3l0,0.1l0,0.1l0,0l0,0.1l-0.1,0l-0.1,0.1l0,0.1 l-0.5,0L32.3,60l-0.2,0.3L32,60.4l-0.1,0l0,0.1l0.1,0.1l0,0.1l-0.3,0.1l-0.1,0.1l-0.1,0.2l-0.1,0l-0.1,0L31.1,61L31,61l-0.1,0.1 L30.7,61l-0.2,0.1l-0.1,0l-0.2,0l-0.4,0.1l-0.3-0.1l-0.4,0l-0.3-0.3l-0.2-0.1l-0.2,0l-0.2-0.2l-0.1,0l-0.1,0.1l-0.1,0l-0.1-0.1 v-0.3l-0.1-0.5v-0.2l0,0l0.2,0.1l0.1,0l0.2-0.2l0.1-0.2l0-0.5l-0.1-0.3l0-1.1L28,56.9l-0.4-0.7L27,55.3l-0.2-0.5v-0.2l-0.2-0.9 L26,52.8l-0.7-0.9l-0.2-0.5l-0.3-0.7l-0.3-0.4l-0.9-0.8l0-0.1l0-0.1l0.1,0l0,0l0-0.1l0.1,0l0.2,0.3l0.3,0.2l0.1,0.1l0.1,0l0,0 l0-0.2l-0.1-0.2L23.9,49l-0.1-0.3l0-0.1l0.1,0l0.2,0.3c0,0,0.1,0.1,0.1,0.2c0.1,0.1,0.1,0.2,0.1,0.2l0,0l0-0.1h0.1l0,0.1l0,0.1 l0.2,0.2l0.1,0l0.1,0l0-0.2l0-0.4l-0.6-0.9L24,47.7l-0.1-0.1l-0.4-0.5l-0.1-0.2l0.1-0.7l0-0.2l0.2-0.3l0-0.1l-0.1-0.3l0-0.4 l-0.2-0.3l0-0.1v-0.2l0.1-0.2l0.1-0.3l0-0.2l0.1-0.1l0.1,0l0,0.1l0,0.2l0.1,0.1l0,0.3l0,0.1l0.1,0l0.1,0l0.2-0.3l0-0.4l0.1-0.2 l0.2-0.3l0.3-0.1l0.2-0.2l0.2-0.3l0.3-0.2l0.2-0.3l0.3-0.2l0-0.1l0.1,0l0.1,0l0.4-0.2l0.3,0l0.2-0.2l0.2-0.3l0.1,0l0,0.2 l0.1,0.1l0.2,0L28,41l0.2,0l0.3-0.4l0.3-0.1l0.4-0.1l0.2-0.2l0.2-0.3l0.2-0.1l0.4,0l0.2,0.1l0.1,0l0.7-0.3l0.8-0.4l0.3-0.2 l0.3-0.3l0.2-0.4l0.2-0.6l0.1-0.1l0.5-0.3l0.2-0.3l-0.1-0.2l-0.2-0.4l0-0.6l0.2-0.1l0-0.2l0.1-0.1l0.2,0l0.2-0.2l0.2,0l0.1-0.3 l0-0.1l0.1-0.3l0.1,0l0,0l0,0.3l0.3,0.3l0.2,0.3l0.2,0.4l0.1,0.1l0.1,0l0-0.4l0.1-0.1l0.1,0.2l0,0l0.1,0l0-0.2l0.1-0.2l0,0 l-0.3,0l-0.1-0.2l-0.2-0.1L35,34.4l0.1-0.1l0.2-0.1l0-0.1l-0.1-0.1l0-0.1l0.1-0.1l0.1,0l0.1,0.1l0,0l0.1-0.1l0.1,0l0.1,0.1 l0.2,0l0.1,0.1l0.1,0l0.1-0.1h0.3l0.1,0l0,0l0,0l-0.4,0l-0.1-0.1l0-0.1l0.1-0.1l0.2,0l0.1,0l0-0.2l0.1-0.1l0-0.1l0,0l-0.1,0 l-0.1,0.1l0,0.1l0,0.1l-0.1,0l-0.3-0.3l0-0.1l0.1-0.1l0-0.1l0.1-0.1l0.2,0l0-0.1l0-0.1l0-0.2l0.1,0l0.3,0.2l0.1,0l0.1,0l0-0.1 l-0.3-0.2l0-0.1l0.1-0.1l0-0.1L37,32l0.2,0.1l0.1,0.1l0.1,0l0-0.1l-0.1-0.1L37,31.7l0-0.1l0.1-0.1l0.1-0.1h0.2l0.1-0.1v-0.2 l0-0.1l0.1,0l0,0.1l0,0.2l0,0.1l0.1,0l0-0.1l0,0l0.1,0l0.2,0l0.1-0.1l0-0.1l0.1-0.1l0-0.2l-0.2-0.1l0-0.1c0,0,0.1-0.1,0.1-0.1 s0.1,0,0.1,0l0.2,0.2l0.1,0l0.1-0.1l0.1-0.1l0.1,0l0.1,0.2l0.1,0l0.1-0.1l0-0.1l0.1,0l0.1,0c0,0,0-0.2,0-0.2 c0,0-0.1-0.1-0.1-0.1l0.1-0.1l0.2,0.1l0.1,0l0.5,0l0.7,0.6l0.2,0.3l0.2,0l0.1,0.1l0,0.2l-0.1,0.2l0,0.3l0.1,0.1l0.2,0l0-0.1 l-0.1-0.2l0-0.1l0.1-0.1l0.2,0l0.1-0.1l0-0.2l0.1-0.1l0.2,0c0,0,0.2,0.1,0.2,0.1c0,0,0.2,0,0.2,0l0.1,0.1l0,0.1l0,0.1l0.1,0 l0-0.2l0-0.2l0.1-0.1l0.2,0.2l0.2,0.2l0.1,0l0.1,0l0,0l-0.2-0.2l-0.1-0.1l0-0.1l0.1-0.1l0.1,0l0.1-0.1l0-0.1l-0.3,0l-0.1,0 l0-0.1l0.2-0.2l0-0.1l-0.1,0l-0.2,0.1l-0.1,0l0-0.1l-0.2-0.2l0-0.1l0.3-0.3l0-0.3l0.1-0.2l0-0.4l0.1-0.1l0.1,0.1l0,0l0.1,0 l0.2-0.2L43.8,29l-0.1-0.1l0-0.2l0.3-0.2l0.1-0.2l0.1,0l0.2,0.1l0.1,0l0-0.1L44.3,28l0.1-0.1l0.1,0l0.1,0.1l0,0.1l0.1,0l0.1-0.1 l0,0l0,0l0.1-0.1l0.1,0v-0.1l-0.1-0.1l0-0.1l0.1,0l0.2,0.1l0.1,0l0.1-0.2h0l0,0.2l0.1,0.1l0.2,0l0.2-0.1l0.3,0l0.1,0l0.1,0 l0.1,0l0.1-0.1l0.1,0l0.1,0l0.1,0l0.2-0.1l0-0.1L47,27l0-0.1l0.1-0.2l0,0l0,0H47l-0.2-0.2l-0.3,0l-0.1,0l-0.1,0.1l0,0l-0.1-0.1 l-0.3-0.1l0-0.1l0.1-0.1l0.1-0.1l0.1,0l0.1,0.1l0.1,0.2l0.1,0.1l0,0v-0.1l-0.1-0.1l0,0l0.1,0l0,0l0.2,0l0.3,0.3l0.2,0l0.1-0.2 l0.1,0l0.1,0.1l0.1,0.2l0,0.1l0.2,0.1l0.3,0l0.1,0.1l0.2,0l0.2-0.1l0.1,0l0.1,0.1l0.1,0c0,0,0.1-0.1,0.1-0.1s0.1,0,0.1,0 l0.2,0.1l0.3,0l0.1,0c0,0,0.2,0,0.2,0c0,0,0.2-0.1,0.2-0.1l0.1,0l0.1,0.1l0.2,0.3l0.3,0l0.2-0.2l0.2,0l0.3-0.2h0.1l0,0.1 l-0.1,0.2l0,0.1l0.1,0l0.1,0l0.1,0.1c0,0,0.1,0.2,0.1,0.2c0,0,0.1,0.1,0.1,0.1l0.3,0l0.1-0.1l0.2-0.2l0-0.1l-0.2,0l-0.1-0.1 l0.2-0.1l0.2-0.1l0.2-0.2l0.1,0l0,0l0,0L53,27l0,0.1l0.1,0.1l0,0.1l0.1,0.2l0.1,0l0-0.1l0-0.1l0.1,0l0.1,0.2l0,0.1l-0.1,0.1 l-0.2,0.1l0,0.1l0,0.1l-0.1,0.2l-0.2,0l-0.1,0.1l0.1,0.1v0.1l-0.1,0.2l-0.1,0.2l-0.1,0.1l-0.1,0l0-0.2l-0.1,0l-0.1,0.1l-0.1,0 l-0.2-0.1l-0.2,0l-0.1,0.1l0,0.1l0.1,0.1l0,0.1l-0.1,0.1l0,0.1l0.1,0.1l0.2,0l0.1,0l0,0.1l-0.2,0.2l0,0.3l-0.1,0.1l-0.1,0.1 l-0.1,0.1l-0.1,0.1l0,0.1l-0.1,0.1l-0.1,0.1l-0.1,0.1l0,0l0,0.1l0.1,0.1l0.4,0.2l0.3,0.3l0.3,0.2l0.3,0.2l0.2,0.2l0.1,0l0,0l0,0 l0,0.1l0,0.1l0.1,0.1l0.3,0l0.2,0.2l0.3,0.2l0.6,0.3l0.6,0.5l0.5,0.2l0.4,0.1l0.3,0.2l0.3,0.4l0.3,0.3l0.3,0.1l0.4,0.2l0.3,0 l0.3,0l0.2-0.1l0.3-0.2l0.1-0.2L59,34l0.3-0.4l0.2-0.4l0.1-0.3l0.1-0.6l0-0.2l0.2-0.3l0.1-0.2l0.1-1.5l0-0.1l-0.1-0.3v-0.3 l0.1-0.2l0.2-0.2l0-0.1l-0.1-0.3l0-0.3l0.2-0.2l0.2-0.1l0.1-0.1l0-0.1l-0.1,0l-0.1,0l-0.1-0.1l-0.1,0l-0.1,0l-0.1,0l0-0.1 l0.3-0.4l0.1-0.1l0.1,0l0.1,0l0-0.1l-0.1-0.1l0-0.1l0.2-0.3l0.1-0.4l0-0.4l0.1-0.1l0.1,0H61l0.1-0.1l0.1-0.1l0.1,0l0.1,0l0,0.1 l0,0.1l0,0l0.1,0l0.1,0l0.1,0.1l0.1,0.2l0,0.2l0,0.6l0,0.2l0.1,0.2l0,0l0.2,0.1l0,0.1l-0.1,0.1l-0.1,0.1l0,0.2 c0,0,0.2,0.1,0.2,0.1c0,0,0.1,0.2,0.1,0.2l0.1,0.1l0,0.2l0,0.2l0.1,0L62.7,28.4L62.7,28.4z"></path> <polygon class="st0" points="44.3,27 44.3,27 44.1,26.9 43.9,26.7 43.8,26.5 43.7,26.4 43.6,26.4 43.6,26.5 43.7,26.7 43.7,26.8 43.6,27 43.6,27 43.7,27.1 43.9,27.1 44.1,27.1 "></polygon> <polygon class="st0" points="43.9,26.2 44,26.2 44.2,26.4 44.3,26.5 44.4,26.5 44.4,26.5 44.5,26.5 44.6,26.3 44.7,26.3 45,26.3 45,26.2 45.2,26 45.2,26 45.3,26.2 45.3,26.2 45.5,26.2 45.5,26.3 45.5,26.4 45.4,26.5 45.4,26.7 45.4,26.8 45.3,26.8 45.2,26.9 45,26.9 44.8,27.1 44.8,27.1 44.6,27 44.3,26.8 44.2,26.8 44,26.4 43.9,26.3 "></polygon> <polygon class="st0" points="46.9,26.1 46.9,25.9 46.9,25.8 47,25.9 47,26.1 47,26.2 47,26.2 "></polygon> <path class="st0" d="M51.3,26.9L51.3,26.9l0.2-0.2l0.2-0.2c0,0,0-0.1,0.1-0.1c0,0,0.1,0,0.1,0v0.1l-0.1,0.1l-0.1,0.1L51.3,26.9 L51.3,26.9z"></path> <path class="st0" d="M52.3,26.5c0,0,0.2-0.1,0.2-0.1l0.2-0.1l0.1,0l0,0l-0.1,0.1l-0.1,0l-0.1,0.1L52.3,26.5L52.3,26.5L52.3,26.5 z"></path> <polygon class="st0" points="52.2,26.4 52.2,26.3 52.3,26.3 52.3,26.4 52.3,26.4 52.2,26.4 "></polygon> <path class="st0" d="M51.1,27.1L51.1,27.1c0-0.1,0-0.1,0-0.1c0,0,0.1,0,0.1,0l0,0.1L51.1,27.1L51.1,27.1z"></path> <polygon class="st0" points="52.9,26.1 53.1,26 53.2,25.9 53.3,25.7 53.3,25.7 53.3,25.8 53.3,25.9 53.2,26.1 53.1,26.2 53,26.2 53,26.2 "></polygon> <polygon class="st0" points="52.3,29.5 52.3,29.3 52.3,29.3 52.4,29.3 52.4,29.4 52.4,29.5 "></polygon> <polygon class="st0" points="52.7,29.6 52.9,29.6 52.9,29.5 53,29.4 53.1,29.4 53.1,29.5 53.3,29.5 53.4,29.5 53.4,29.5 53.2,29.7 53.2,29.8 53.1,29.9 53.2,30 53.3,30.1 53.3,30.2 53.2,30.2 53,30.2 52.8,30 52.7,30 52.6,29.9 "></polygon> <polygon class="st0" points="61.6,66.7 61.7,66.7 61.8,66.6 62,66.6 62,66.5 62,66.3 61.9,66.1 61.8,65.9 61.7,65.9 61.6,66 61.6,66.1 61.6,66.2 61.5,66.3 61.5,66.4 61.6,66.5 61.6,66.6 "></polygon> <polygon class="st0" points="66,66.3 66,66.3 66.2,66.1 66.3,66.1 66.4,66.2 66.5,66.3 66.7,66.5 66.7,66.6 66.7,66.7 66.7,66.7 66.6,66.8 66.6,66.9 66.5,66.9 66.4,66.9 66.3,66.9 66.3,66.7 66.3,66.7 66.2,66.7 66.1,66.6 66.1,66.4 "></polygon> <polygon class="st0" points="66.2,67.2 66.3,67.1 66.5,67.1 66.7,67 66.8,67.1 67,67.3 67,67.4 66.9,67.4 66.8,67.4 66.7,67.3 66.5,67.3 66.3,67.3 "></polygon> <polygon class="st0" points="66.4,67.7 66.4,67.6 66.4,67.5 66.5,67.5 66.6,67.6 66.6,67.7 66.5,67.7 66.5,67.7 "></polygon> <path class="st0" d="M62.7,67.4C62.7,67.4,62.7,67.4,62.7,67.4L62.7,67.4l0-0.1l0-0.2h0l0,0L62.7,67.4L62.7,67.4z"></path> <polygon class="st0" points="62.8,67.2 62.8,67.1 62.9,67.1 62.9,67.1 62.9,67.2 62.9,67.2 62.9,67.2 62.8,67.2 "></polygon> <polygon class="st0" points="62.8,67.5 62.8,67.4 62.9,67.4 63,67.5 63,67.6 63,67.6 "></polygon> <path class="st0" d="M62.5,67.6L62.5,67.6l0.3,0.1l0.2,0.2l0.2,0.1l0.2,0.1l0,0.1l0,0.1l0.1,0h0.3l0,0l0,0.1l0.2,0.1l0.4,0l0,0 l0.1-0.1l0.1,0l0,0.1l0.1,0.1l0.1,0v-0.1l-0.1-0.1l0-0.1l0.1,0l0.3,0l0.2,0.1l0.1,0l0.2-0.1l0.1-0.1l0.1,0l0.1,0.1l0,0l0.1,0 l0-0.1l0-0.1l0.1,0l0.1,0l0.1,0.1l0,0l0.1,0l0,0v0.3v0.3l0,0.1l-0.1,0.2l0,0.2l0,0.2l0,0.2l0,0.1l-0.1,0.2l0,0.1l0,0.1l0,0.2 l0,0l-0.1,0l0-0.1l0-0.2l0,0l-0.1,0l0,0.1v0.2l0,0l-0.1,0.1l0,0v0.1l-0.1,0.1l0,0.1l0,0.3l0,0.1l0,0.1l0,0.2l0,0.3l0,0.1l-0.1,0 l0-0.1l-0.1,0l-0.1,0.1h-0.1l0-0.1l0.1-0.1l0-0.1l0-0.1l0-0.1l0.1-0.1l0-0.1l-0.1,0l-0.1-0.1L65.4,71l-0.1,0l0,0.1l0.2,0.2 l0,0.1l0,0.1l-0.1,0l0,0.1l-0.1,0l-0.1-0.1l-0.1-0.1l0,0l0,0.2l0,0.1l-0.1,0l-0.1-0.1l-0.1-0.2l0-0.1l-0.1,0l0,0.2l0.2,0.3 l0,0.2l0,0.2l0,0.1l-0.1,0.1h-0.2l-0.1-0.1l-0.1-0.1l-0.1,0L64,72.1l-0.3,0l-0.3,0l-0.1,0l-0.1,0l-0.1-0.2l-0.1-0.1l0-0.2l0.1,0 l0.2,0.1l0.1,0l0-0.1l-0.2-0.2L63,71.3L63,71.1l0-0.5l0-0.3l-0.1-0.2l0-0.1l0.1,0l0.1,0.3l0,0.2l0,0l0.1,0l0-0.2L63,69.8 L63,69.4L62.8,69c0,0-0.2-0.2-0.2-0.2c0,0-0.1-0.1-0.1-0.1l0-0.3l-0.1-0.2l0-0.2l0.1-0.2L62.5,67.6z"></path> <polygon class="st0" points="65,72 65,71.9 65.2,71.7 65.2,71.7 65.2,71.7 65.2,71.8 65.1,72 65.1,72 "></polygon> <path class="st0" d="M66.1,70.9L66.1,70.9l0-0.2c0,0,0.1-0.1,0.1-0.1c0,0,0.1,0,0.1,0l0,0l0,0.1l-0.1,0L66.1,70.9L66.1,70.9 L66.1,70.9z"></path> <path class="st0" d="M63.5,64.1L63.5,64.1c0-0.1,0-0.2,0-0.2c0,0,0.1,0,0.1,0L63.5,64.1L63.5,64.1L63.5,64.1L63.5,64.1z"></path> <polygon class="st0" points="63.3,64.3 63.3,64.3 63.3,64.3 63.5,64.3 63.5,64.3 63.5,64.4 63.5,64.4 63.4,64.4 63.3,64.4 "></polygon> <polygon class="st0" points="74.5,49.1 74.5,48.9 74.6,48.9 74.6,49 74.6,49.1 74.6,49.2 74.5,49.3 74.5,49.2 "></polygon> <polygon class="st0" points="74.6,49.8 74.6,49.7 74.7,49.7 74.7,49.5 74.6,49.5 74.6,49.5 74.5,49.6 74.6,49.7 "></polygon> <polygon class="st0" points="74.5,46 74.5,45.8 74.6,45.7 74.6,45.7 74.7,45.7 74.7,46 74.7,46.1 74.7,46.2 74.7,46.2 74.5,46.4 74.4,46.7 74.4,46.9 74.4,47 74.3,47.1 74.2,47 74.2,46.8 74.3,46.6 74.3,46.4 74.3,46.3 74.4,46.2 74.5,46.1 "></polygon> <polygon class="st0" points="72.1,43.9 72.1,43.9 72.2,43.9 72.3,44 72.3,44 72.3,44.1 72.2,44.1 72.1,44 "></polygon> <polygon class="st0" points="71.4,42 71.4,42 71.4,42 71.4,41.9 71.5,41.9 71.5,42 71.5,42 "></polygon> <polygon class="st0" points="69.6,39 69.6,38.9 69.6,38.8 69.6,38.8 69.5,38.9 69.5,38.9 "></polygon> <polygon class="st0" points="69.6,39.1 69.7,39 69.7,39 69.8,39.1 69.8,39.1 69.7,39.2 69.6,39.2 69.6,39.1 "></polygon> <polygon class="st0" points="66.6,36.7 66.6,36.7 66.7,36.6 66.7,36.7 66.8,36.7 66.8,36.8 66.7,36.8 66.6,36.7 "></polygon> <polygon class="st0" points="66.2,35.9 66.2,35.9 66.3,35.9 66.3,35.9 66.4,36 66.4,36.1 66.3,36.1 66.3,36 "></polygon> <polygon class="st0" points="60.9,25.4 61,25.2 61,25.2 60.9,25.1 60.9,25.2 60.8,25.2 60.8,25.3 "></polygon> <polygon class="st0" points="57.1,33.4 57.2,33.4 57.3,33.3 57.3,33.3 57.3,33.2 57.2,33.2 57.1,33.2 57,33.2 56.8,33.4 56.7,33.4 56.7,33.5 56.8,33.6 56.8,33.6 57,33.5 "></polygon> <path class="st0" d="M57,34C57,34,57.1,33.9,57,34L57,34l0.1,0.1l0,0H57l0,0L57,34z"></path> <path class="st0" d="M53.5,32.1C53.5,32.1,53.5,32,53.5,32.1C53.5,32,53.6,32,53.5,32.1l0.1,0v0.1l-0.1,0L53.5,32.1L53.5,32.1z"></path> <polygon class="st0" points="53.3,32.2 53.2,32.1 53.3,32 53.3,32 53.3,32.1 53.3,32.2 "></polygon> <polygon class="st0" points="51.6,30.8 51.7,30.8 51.8,30.9 51.8,30.9 51.7,31 51.7,31 51.6,30.9 "></polygon> <polygon class="st0" points="36.9,31.4 36.9,31.4 36.9,31.3 37,31.3 37,31.3 37,31.4 37,31.4 36.9,31.4 "></polygon> <polygon class="st0" points="36.5,32.1 36.6,32.1 36.6,32.1 36.7,32.1 36.7,32.2 36.7,32.2 36.6,32.2 36.6,32.2 36.5,32.2 36.5,32.1 "></polygon> <polygon class="st0" points="36.3,32.7 36.2,32.6 36.2,32.6 36.3,32.5 36.3,32.5 36.3,32.6 36.3,32.6 "></polygon> <polygon class="st0" points="25.1,41.6 25.2,41.5 25.2,41.6 25.2,41.6 25.2,41.8 25.2,41.8 25.2,41.9 25.1,41.8 25.1,41.8 25.1,41.6 "></polygon> <polygon class="st0" points="23.2,48.7 23.3,48.6 23.3,48.6 23.5,48.9 23.6,49.2 23.6,49.3 23.6,49.3 23.5,49.3 23.3,49 23.2,48.8 "></polygon> <polygon class="st0" points="50.7,57.4 50.7,57.3 50.8,57.3 50.9,57.3 50.9,57.4 50.8,57.4 50.7,57.4 "></polygon> <polygon class="st0" points="54,60 54.2,59.9 54.5,59.9 54.6,59.9 54.6,60.1 54.7,60.1 54.8,60.1 55,60.2 55.1,60.2 55.1,60.3 55.1,60.4 54.9,60.4 54.7,60.4 54.6,60.4 54.5,60.5 54.5,60.5 54.4,60.6 54.3,60.5 54.2,60.5 54,60.6 53.8,60.6 53.7,60.6 53.5,60.6 53.4,60.5 53.3,60.5 53.3,60.4 53.2,60.3 53.3,60.2 53.5,60.1 53.6,60.1 53.7,60.1 "></polygon> </g> </g> </g> </g> </svg> 