<?xml version="1.0" encoding="UTF-8"?> <!-- Generator: Adobe Illustrator 25.2.1, SVG Export Plug-In . SVG Version: 6.00 Build 0) --> <svg xmlns="http://www.w3.org/2000/svg" xmlns:xlink="http://www.w3.org/1999/xlink" version="1.1" id="Layer_1" x="0px" y="0px" width="100px" height="100px" viewBox="0 0 100 100" style="enable-background:new 0 0 100 100;" xml:space="preserve"> <style type="text/css"> .st0{fill-rule:evenodd;clip-rule:evenodd;} </style> <path class="st0" d="M76.66,63.24l-2.97,16.34L56.32,63.79H50c-15.99,0-28.95-12.96-28.95-28.95C21.05,18.85,34.01,5.89,50,5.89 h21.05C87.04,5.89,100,18.85,100,34.84C100,48.91,89.96,60.63,76.66,63.24z M80.7,25.19H40.35v7.02H80.7V25.19z M80.7,37.47H56.14 v7.02H80.7V37.47z M47.13,67.28h6.46l2.07,2.05C52.19,76.59,45,81.58,36.67,81.58h-4.63L19.3,93.61l-2.18-12.45 C7.36,79.17,0,70.25,0,59.53c0-10.89,7.61-19.92,17.61-21.71c-0.02,0.41-0.06,0.81-0.06,1.22C17.54,55.41,30.79,67.28,47.13,67.28z"></path> </svg> 