<?xml version="1.0" encoding="UTF-8"?> <!-- Generator: Adobe Illustrator 25.3.1, SVG Export Plug-In . SVG Version: 6.00 Build 0) --> <svg xmlns="http://www.w3.org/2000/svg" xmlns:xlink="http://www.w3.org/1999/xlink" version="1.1" id="Layer_1" x="0px" y="0px" width="100px" height="100px" viewBox="0 0 100 100" style="enable-background:new 0 0 100 100;" xml:space="preserve"> <style type="text/css"> .st0{fill:none;stroke:#000000;stroke-width:3.1142;stroke-miterlimit:10;} </style> <g> <g> <polyline class="st0" points="4.5,66.7 15.4,61.9 28.6,91.7 17.8,96.6 "></polyline> <path class="st0" d="M43.5,74.4h18.1c3.1,0,5.6-2.5,5.6-5.6l0,0c0-3.1-2.5-5.6-5.6-5.6h-6c-1.9,0-3.8-0.7-5.3-2l0,0 c-2.6-2.3-5.9-3.5-9.3-3.5h-5.3c-3.2,0-6.4,0.9-9.1,2.7l-9.5,6"></path> <path class="st0" d="M27.1,87.1L47.5,89c3.1,0.3,6.3,0,9.2-1l21.4-6.6c3.5-1.1,6.5-3.3,8.5-6.4l8.2-12.4c1.4-2.2,0.3-5.1-2.1-5.8 h0c-0.8-0.2-1.7-0.2-2.5,0.1l0,0c-4.7,1.9-8.8,4.9-12.1,8.8l0,0c-1.7,1.9-3.9,3.3-6.5,3.7l-4.7,0.8"></path> </g> <g> <path d="M70.2,8.8c-6.5,0.3-15.4-3.3-19.8-8.2L49.9,0l-0.6,0.7c-4.4,4.9-13.3,8.5-19.8,8.2h-0.8v23.1c0,0.9,0.2,1.8,0.6,2.5 c1.8,3.9,4.9,8,8.6,11.6c3.8,3.6,8,6.5,11.7,8.1l0.3,0.1l0.3-0.1c3.8-1.5,8-4.4,11.7-8.1c3.8-3.6,6.9-7.7,8.6-11.6 c0.3-0.8,0.6-1.7,0.6-2.5V8.7L70.2,8.8z M66.7,31.3c0,0.7-0.1,1.4-0.4,2.1c-1.4,3-3.9,6.3-6.9,9.2c-3,2.9-6.3,5.2-9.3,6.4 l-0.3,0.1L49.4,49c-3-1.2-6.3-3.5-9.3-6.4c-3-2.9-5.4-6.2-6.9-9.2c-0.3-0.7-0.4-1.3-0.4-2.1V12.8h0.8c5.1,0.2,12-2.5,15.5-6.4 l0.6-0.7l0.6,0.7c3.4,3.8,10.4,6.6,15.5,6.4h0.8v18.5H66.7z"></path> <polygon points="59.1,18 46.2,30.9 40.6,25.3 37.5,28.4 46.2,37.1 62.2,21.1 "></polygon> </g> </g> </svg> 