<?xml version="1.0" encoding="UTF-8"?> <!-- Generator: Adobe Illustrator 25.3.1, SVG Export Plug-In . SVG Version: 6.00 Build 0) --> <svg xmlns="http://www.w3.org/2000/svg" xmlns:xlink="http://www.w3.org/1999/xlink" version="1.1" id="Layer_1" x="0px" y="0px" width="100px" height="100px" viewBox="0 0 100 100" style="enable-background:new 0 0 100 100;" xml:space="preserve"> <style type="text/css"> .st0{fill:none;stroke:#000000;stroke-width:4.2683;stroke-linecap:round;stroke-linejoin:round;stroke-miterlimit:10;} </style> <g> <g> <path class="st0" d="M6,51.5l16.9-22.7c1-1.3,2.8-1.6,4.1-0.6l4.6,3.4c1.3,1,1.6,2.8,0.6,4.1L13.5,61.2c-1,1.3-2.8,1.6-4.1,0.6 l-5.9-4.4"></path> <path class="st0" d="M94,51.6L77.1,29c-1-1.3-2.8-1.6-4.1-0.6l-4.6,3.4c-1.3,1-1.6,2.8-0.6,4.1l18.8,25.4c1,1.3,2.8,1.6,4.1,0.6 l5.9-4.4"></path> <line class="st0" x1="63.8" y1="58.8" x2="48.7" y2="50.4"></line> <path class="st0" d="M13.9,60.6c3.7,3.6,5.9,6.7,8.4,9.9"></path> <path class="st0" d="M85.9,60.7c-2.6,2.5-4.5,4.8-6.2,7.1"></path> <g> <path class="st0" d="M63.8,58.8L79,67.3c2,1.1,2.7,3.6,1.6,5.6l0,0c-1.1,2-3.6,2.7-5.6,1.6L59.8,66"></path> <path class="st0" d="M59.8,66l12.4,6.9c2,1.1,2.7,3.6,1.6,5.6l0,0c-1.1,2-3.6,2.7-5.6,1.6l-12.4-6.9"></path> <path class="st0" d="M55.8,73.1l9.6,5.4c2,1.1,2.7,3.6,1.6,5.6v0c-1.1,2-3.6,2.7-5.6,1.6l-9.6-5.4"></path> <path class="st0" d="M51.8,80.3l6.5,3.7c2,1.1,2.7,3.6,1.6,5.6v0c-1.1,2-3.6,2.7-5.6,1.6l-4.6-2.6"></path> </g> <path class="st0" d="M31.7,37.1l9.8,0.2c1.1,0,2.2,0.3,3.2,0.8l2.7,1.3"></path> <g> <path class="st0" d="M37.7,90.1l5.1-5.4c1.6-1.6,4.2-1.7,5.8-0.2l0,0c1.6,1.6,1.7,4.2,0.2,5.8l-5.1,5.4c-1.6,1.6-4.2,1.7-5.8,0.2 v0C36.2,94.3,36.1,91.7,37.7,90.1z"></path> <path class="st0" d="M31.7,84.4l7.9-8.3c1.6-1.6,4.2-1.7,5.8-0.2l0,0c1.6,1.6,1.7,4.2,0.2,5.8l-7.9,8.3c-1.6,1.6-4.2,1.7-5.8,0.2 l0,0C30.2,88.7,30.2,86.1,31.7,84.4z"></path> <path class="st0" d="M25.7,78.8l8.6-9.1c1.6-1.6,4.2-1.7,5.8-0.2h0c1.6,1.6,1.7,4.2,0.2,5.8l-8.6,9.1c-1.6,1.6-4.2,1.7-5.8,0.2v0 C24.3,83.1,24.2,80.5,25.7,78.8z"></path> <path class="st0" d="M19.8,73.2l6.2-6.6c1.6-1.6,4.2-1.7,5.8-0.2v0c1.6,1.6,1.7,4.2,0.2,5.8l-6.2,6.6c-1.6,1.6-4.2,1.7-5.8,0.2v0 C18.3,77.4,18.2,74.8,19.8,73.2z"></path> </g> <path class="st0" d="M48.7,50.4l-5.4,3.1c-3.8,2.2-8.6,0.9-10.7-2.9l0,0c-0.6-1-0.2-2.4,0.8-3l19.2-11c1.8-1,3.8-1.4,5.8-1 l9.9,1.7"></path> </g> <g> <line class="st0" x1="50" y1="3" x2="50" y2="17.1"></line> <line class="st0" x1="62.1" y1="5.2" x2="57.3" y2="18.4"></line> <line class="st0" x1="72.8" y1="11.3" x2="63.7" y2="22.1"></line> <line class="st0" x1="27.2" y1="11.3" x2="36.3" y2="22.1"></line> <line class="st0" x1="37.9" y1="5.2" x2="42.7" y2="18.4"></line> </g> </g> </svg> 