<?xml version="1.0" encoding="UTF-8"?> <!-- Generator: Adobe Illustrator 25.2.1, SVG Export Plug-In . SVG Version: 6.00 Build 0) --> <svg xmlns="http://www.w3.org/2000/svg" xmlns:xlink="http://www.w3.org/1999/xlink" version="1.1" id="Layer_1" x="0px" y="0px" width="100px" height="100px" viewBox="0 0 100 100" style="enable-background:new 0 0 100 100;" xml:space="preserve"> <style type="text/css"> .st0{fill-rule:evenodd;clip-rule:evenodd;} </style> <g> <g> <path class="st0" d="M74.09,54.05c-12.41,0-22.48,10.06-22.48,22.48c0,1.45,0.15,2.86,0.41,4.22l41.33-15.76 C89.43,58.44,82.28,54.05,74.09,54.05z M96.16,72.31L54.83,88.07C58.76,94.61,65.91,99,74.09,99c12.41,0,22.48-10.07,22.48-22.48 C96.57,75.08,96.42,73.68,96.16,72.31z M30.11,87.27c-7.5,0-11.41-0.98-15.64-5.86c-4.22-4.89-5.84-14.91,0-21.5 c5.84-6.59,25.41-23.46,25.41-23.46l17.59,15.64c0,0,5.93-5.86,13.68-5.86c5.74,0,8.94,0.11,12.15,2.47l3.94-4.02 c11.01-11.23,12.13-27.99,2.49-37.44c-9.63-9.45-26.37-8-37.38,3.23L12.48,51.14C1.47,62.37,0.35,79.13,9.99,88.58 c9.4,9.22,25.56,8.04,36.56-2.47l-4.71-4.71C41.84,81.41,37.62,87.27,30.11,87.27z"></path> </g> </g> </svg> 