<?xml version="1.0" encoding="UTF-8"?> <!-- Generator: Adobe Illustrator 25.3.1, SVG Export Plug-In . SVG Version: 6.00 Build 0) --> <svg xmlns="http://www.w3.org/2000/svg" xmlns:xlink="http://www.w3.org/1999/xlink" version="1.1" id="Layer_1" x="0px" y="0px" width="100px" height="100px" viewBox="0 0 100 100" style="enable-background:new 0 0 100 100;" xml:space="preserve"> <g> <g> <g> <g> <rect x="72.2" y="22" transform="matrix(0.6172 -0.7868 0.7868 0.6172 8.8093 71.9769)" width="12.4" height="9.8"></rect> </g> </g> <g> <g> <rect x="16.5" y="20.8" transform="matrix(0.7868 -0.6172 0.6172 0.7868 -12.0588 18.9614)" width="9.8" height="12.4"></rect> </g> </g> </g> <g> <path d="M50,100c-10,0-19.3-3.9-26.4-10.9c-7-7-10.9-16.4-10.9-26.4c0-10,3.9-19.3,10.9-26.4c7-7,16.4-10.9,26.4-10.9 c10,0,19.3,3.9,26.4,10.9c7,7,10.9,16.4,10.9,26.4c0,10-3.9,19.3-10.9,26.4C69.3,96.1,60,100,50,100z M50,31 c-8.5,0-16.4,3.3-22.4,9.3c-6,6-9.3,14-9.3,22.4c0,8.5,3.3,16.4,9.3,22.4c6,6,14,9.3,22.4,9.3c8.5,0,16.4-3.3,22.4-9.3 c6-6,9.3-14,9.3-22.4c0-8.5-3.3-16.4-9.3-22.4C66.4,34.3,58.5,31,50,31z"></path> </g> <g> <g> <rect x="71" y="62.1" width="7.3" height="1.6"></rect> </g> <g> <rect x="49.3" y="34.4" width="1.6" height="7.3"></rect> </g> <g> <rect x="21.7" y="61.7" width="7.3" height="1.6"></rect> </g> <g> <rect x="49" y="83.7" width="1.6" height="7.3"></rect> </g> <g> <rect x="71.3" y="49" transform="matrix(0.866 -0.5 0.5 0.866 -14.9315 43.2649)" width="4" height="0.9"></rect> </g> <g> <rect x="36.3" y="37.5" transform="matrix(0.866 -0.5 0.5 0.866 -14.8014 23.6723)" width="0.9" height="4"></rect> </g> <g> <rect x="24.8" y="75.5" transform="matrix(0.866 -0.5 0.5 0.866 -34.3934 23.5422)" width="4" height="0.9"></rect> </g> <g> <rect x="62.8" y="84" transform="matrix(0.866 -0.5 0.5 0.866 -34.5236 43.1346)" width="0.9" height="4"></rect> </g> <g> <rect x="61.6" y="39.2" transform="matrix(0.5 -0.866 0.866 0.5 -2.5558 74.8402)" width="4" height="0.9"></rect> </g> <g> <rect x="26.5" y="47.2" transform="matrix(0.5 -0.866 0.866 0.5 -29.1414 47.8992)" width="0.9" height="4"></rect> </g> <g> <rect x="34.5" y="85.4" transform="matrix(0.5 -0.866 0.866 0.5 -56.0822 74.4843)" width="4" height="0.9"></rect> </g> <g> <rect x="72.6" y="74.3" transform="matrix(0.5 -0.866 0.866 0.5 -29.4968 101.4254)" width="0.9" height="4"></rect> </g> </g> <g> <circle cx="50" cy="62.7" r="2.3"></circle> </g> <g> <polygon points="49.1,61.7 67.1,46.8 50.9,63.7 "></polygon> </g> <path d="M62.5,12.3C62.5,5.5,56.9,0,50.2,0c-6.8,0-12.3,5.5-12.3,12.3c0,5.8,4,10.6,9.4,11.9v3.8h5.8v-3.8 C58.5,22.9,62.5,18.1,62.5,12.3z M56.1,18.3c-0.9,0.9-1.9,1.6-3,2v-3.5c0.7,0,1.4,0,2.1,0c0.8,0,0.9,0.1,0.9-0.4c0-0.6,0-1.2,0-1.8 s0-1.2,0-1.8c0-0.1,0-0.2,0-0.4c0,0-0.8,0-0.9,0c-3.3,0-6.7,0-10,0c-0.2,0-0.9-0.1-0.9,0.1c0,0.2,0,0.5,0,0.7c0,0.8,0,1.6,0,2.5 c0,0.3,0,0.6,0,0.9c0,0.3,0.1,0.2,0.5,0.2c0.8,0,1.6,0,2.4,0c0,0,0,0,0,0v3.6c-3.4-1.2-5.8-4.3-5.8-8.1c0-4.7,3.8-8.6,8.6-8.6 c0,0,0.1,0,0.1,0l0.1,0c2.3,0,4.4,0.9,6,2.6c1.6,1.6,2.5,3.7,2.5,6C58.6,14.6,57.7,16.7,56.1,18.3z"></path> </g> </svg> 