<?xml version="1.0" encoding="UTF-8"?> <!-- Generator: Adobe Illustrator 25.3.1, SVG Export Plug-In . SVG Version: 6.00 Build 0) --> <svg xmlns="http://www.w3.org/2000/svg" xmlns:xlink="http://www.w3.org/1999/xlink" version="1.1" id="Layer_1" x="0px" y="0px" width="100px" height="100px" viewBox="0 0 100 100" style="enable-background:new 0 0 100 100;" xml:space="preserve"> <style type="text/css"> .st0{fill-rule:evenodd;clip-rule:evenodd;} </style> <g> <g> <path class="st0" d="M89.2,53c-1.4-0.3-12.4-1.2-12.4-1.2s0-9.8,0-10.9c0-0.6-0.3-1.6-1.1-2.3l-0.1-2.1l3.6-4.4l-5.6-1.2l-2.8-5.2 l-2.8,5.2l-5.6,1.2l3.6,4.4l-0.4,6l5.1-2.7c-0.2,0.4-0.2,0.8-0.2,1.1c0,1.1,0,22.6,0,22.6s-6.7,0-10,0c-3.3,0-4.4,3.1-4.4,3.6 c0,0.5,0,2.8,0,2.8s0.2,0,8,0c7.8,0,9.6,6,9.6,7.7s0,6,0,6h16v-6.4c2.2-3.5,3.2-9.4,3.2-11.3v-8.5C92.8,54.2,90.6,53.3,89.2,53z M58.3,32.1l-5.6-1.2l-2.8-5.2l-2.8,5.2l-5.6,1.2l3.6,4.4l-0.4,6l5.2-2.8l5.2,2.8l-0.4-6L58.3,32.1z M31.9,30.9L29,25.6l-2.8,5.2 l-5.6,1.2l3.6,4.4l-0.4,6l5.2-2.8l5.2,2.8l-0.4-6l3.6-4.4L31.9,30.9z M11.2,30.9l-2.8-5.2l-2.8,5.2L0,32.1l3.6,4.4l-0.4,6l5.2-2.8 l5.2,2.8l-0.4-6l3.6-4.4L11.2,30.9z M100,32.1l-5.6-1.2l-2.8-5.2l-2.8,5.2l-5.6,1.2l3.6,4.4l-0.4,6l5.2-2.8l5.2,2.8l-0.4-6 L100,32.1z M67.1,24l-4.8-6l-2.8,2.8l6,4.8L67.1,24z M82.8,18.8l-3.6-2.4l-4,8.1l1.6,1.6L82.8,18.8z"></path> </g> </g> </svg> 