<?xml version="1.0" encoding="UTF-8"?>
<!-- Generator: Adobe Illustrator 21.1.0, SVG Export Plug-In . SVG Version: 6.00 Build 0)  -->
<svg version="1.1" id="Layer_1" xmlns="http://www.w3.org/2000/svg" xmlns:xlink="http://www.w3.org/1999/xlink" x="0px" y="0px" viewBox="0 0 96.8 82.9" style="enable-background:new 0 0 96.8 82.9;" xml:space="preserve">
<style type="text/css">
	.st0{fill:#367ACA;}
</style>
<path class="st0" d="M96.4,23.6c-0.4-0.5-1-0.8-1.6-0.8h-73L18,9.3c-0.1-0.3-2.1-6.9-7.7-8C5.7,0.5,2.4,0,2.3,0  C1.2-0.1,0.2,0.6,0,1.7C-0.1,2.8,0.6,3.8,1.7,4c0,0,3.4,0.5,7.8,1.3c3.2,0.6,4.6,5.1,4.6,5.1l12.1,43.2c0,0,0,0,0,0l2.6,9.3  c0.4,1.8,2.3,5.1,6.9,5.1h45.1c1.1,0,2-0.9,2-2s-0.9-2-2-2H35.8c-2.4,0-2.9-1.5-3-2c0-0.1,0-0.1,0-0.2L30.8,55h54.1  c1,0,1.8-0.7,2-1.7l9.8-27.9C96.9,24.8,96.8,24.1,96.4,23.6z M83.4,51H29.7l-6.8-24.3h69L83.4,51z M40,69.8c-3.6,0-6.5,2.9-6.5,6.5  s2.9,6.5,6.5,6.5c3.6,0,6.5-2.9,6.5-6.5S43.6,69.8,40,69.8z M40,78.9c-1.4,0-2.5-1.1-2.5-2.5s1.1-2.5,2.5-2.5s2.5,1.1,2.5,2.5  S41.4,78.9,40,78.9z M73.8,69.8c-3.6,0-6.5,2.9-6.5,6.5s2.9,6.5,6.5,6.5s6.5-2.9,6.5-6.5S77.4,69.8,73.8,69.8z M73.8,78.9  c-1.4,0-2.5-1.1-2.5-2.5s1.1-2.5,2.5-2.5s2.5,1.1,2.5,2.5S75.2,78.9,73.8,78.9z"/>
</svg>