<svg xmlns="http://www.w3.org/2000/svg" width="33" height="16" viewBox="0 0 33 16">
    <g fill="#030303" fill-rule="evenodd">
        <path d="M31.716 12.833h-1.323a2.177 2.177 0 0 0-2.078-1.572c-.981 0-1.812.665-2.079 1.572h-.7V5.952h3.412c.505 0 .97.279 1.212.728l1.556 2.873v3.28zm-2.47.627c0 .52-.419.944-.931.944a.938.938 0 0 1-.93-.944c0-.52.416-.943.93-.943.512 0 .93.423.93.943zm-12.943 0c0 .52-.418.944-.93.944a.939.939 0 0 1-.932-.944c0-.52.418-.943.931-.943.513 0 .93.423.93.943zM11.217 1.255h11.494c.876 0 1.588.72 1.588 1.61v9.968H17.45a2.177 2.177 0 0 0-2.079-1.572c-.981 0-1.812.664-2.079 1.572h-2.076V1.255zM32.878 9.09l-1.632-3.014a2.616 2.616 0 0 0-2.298-1.379h-3.411V2.864C25.537 1.283 24.272 0 22.71 0H10.598a.623.623 0 0 0-.619.628V13.46c0 .347.277.627.62.627h2.694a2.177 2.177 0 0 0 2.08 1.572c.98 0 1.81-.664 2.078-1.572h8.785a2.175 2.175 0 0 0 2.079 1.572c.98 0 1.81-.664 2.078-1.572h1.942c.342 0 .619-.28.619-.627V9.392a.625.625 0 0 0-.076-.302zM8.202 11.824a.52.52 0 0 1-.515.523h-2.02a.52.52 0 0 1-.514-.523.52.52 0 0 1 .515-.522h2.019a.52.52 0 0 1 .515.522zM8.202 2.647a.52.52 0 0 1-.515.522H.574a.52.52 0 0 1-.516-.522.52.52 0 0 1 .516-.522h7.113a.52.52 0 0 1 .515.522zM8.202 5.706a.52.52 0 0 1-.515.522H3.938a.52.52 0 0 1-.515-.522.52.52 0 0 1 .515-.522h3.749a.52.52 0 0 1 .515.522zM8.202 8.765a.52.52 0 0 1-.515.522H2.24a.52.52 0 0 1-.515-.522.52.52 0 0 1 .515-.522h5.447a.52.52 0 0 1 .515.522z"/>
    </g>
</svg>